<svg width="102" height="121" viewBox="0 0 102 121" fill="none" xmlns="http://www.w3.org/2000/svg">
<path d="M97.9775 38.5251C99.7993 38.2356 101.448 39.6434 101.448 41.488V109.512C101.448 111.246 99.983 112.619 98.2529 112.507L97.6758 112.469C67.4517 110.493 27.0321 106.781 12.5908 102.824L12.3018 102.745C11.3211 102.476 10.5433 101.729 10.2354 100.76L10.123 100.406C7.63423 92.5769 4.0214 77.1259 0.211914 58.0134L0.0585938 57.2429C-0.274248 55.573 0.847718 53.9606 2.5293 53.6931L97.9775 38.5251ZM85.9248 47.9861C85.9248 46.7374 84.7937 45.7937 83.5654 46.0183L16.9199 58.2195C15.8411 58.4172 15.1226 59.4473 15.3096 60.5281L15.5029 61.6462C18.1529 76.9623 20.6662 89.344 22.3975 95.6179L22.5293 96.0984C22.7095 96.7519 23.209 97.2692 23.8555 97.4734L24.1143 97.5554C34.1599 100.727 62.2764 103.702 83.3008 105.285L83.7754 105.32C84.9357 105.407 85.9247 104.49 85.9248 103.326V47.9861Z" fill="#F6E937"/>
</svg>
