<svg width="22" height="22" viewBox="0 0 22 22" fill="none" xmlns="http://www.w3.org/2000/svg">
<path d="M1.83251 1.83227C1.83281 0.820557 2.65301 0.000111396 3.66477 5.68111e-06L20.1576 6.77693e-06C21.1692 0.000314955 21.9896 0.820683 21.9899 1.83227L21.9899 18.3251C21.9898 19.3369 21.1694 20.1571 20.1576 20.1574C19.1457 20.1574 18.3255 19.3371 18.3254 18.3251L18.3241 6.25728L3.12825 21.4531C2.41263 22.1688 1.25238 22.1688 0.536764 21.4531C-0.178855 20.7375 -0.178855 19.5773 0.536763 18.8617L15.7326 3.66579L3.66477 3.66453C2.65282 3.66442 1.83251 2.84424 1.83251 1.83227Z" fill="black"/>
</svg>
