<svg
  width="206"
  height="25"
  viewBox="0 0 206 25"
  fill="none"
  xmlns="http://www.w3.org/2000/svg"
>
  <rect width="206" height="25" fill="#F6E937" />
  <g style="mix-blend-mode:plus-darker">
    <path
      d="M10.5 1.61798L9.17939e-07 1.61798L-9.17939e-07 22.618L10.5 22.618L10.5 12.118L10.5 1.61798ZM10.6 12.118L10.6 22.618L11.1784 22.618L11.7534 22.5544L10.6 12.118ZM48.3 11.6989L46.7144 22.0785L48.3 11.6989ZM139.02 12.7058L137.815 2.27526L139.02 12.7058ZM193.72 12.6472L196.712 22.7118L196.794 22.6876L196.875 22.6621L193.72 12.6472ZM195.4 12.118L195.4 1.61799L193.785 1.61799L192.245 2.10315L195.4 12.118ZM195.5 22.618L206 22.618L206 1.61799L195.5 1.61799L195.5 12.118L195.5 22.618Z"
      fill="#F6E937"
    />
  </g>
</svg>
