<svg width="206" height="25" viewBox="0 0 206 25" fill="none" xmlns="http://www.w3.org/2000/svg">
<g style="mix-blend-mode:plus-darker">
<path d="M10.5 1.61798L9.17939e-07 1.61798L-9.17939e-07 22.618L10.5 22.618L10.5 12.118L10.5 1.61798ZM10.6 12.118L10.6 22.618L11.1784 22.618L11.7534 22.5544L10.6 12.118ZM48.3 11.6989L46.7144 22.0785L48.3 11.6989ZM139.02 12.7058L137.815 2.27526L139.02 12.7058ZM193.72 12.6472L196.712 22.7118L196.794 22.6876L196.875 22.6621L193.72 12.6472ZM195.4 12.118L195.4 1.61799L193.785 1.61799L192.245 2.10315L195.4 12.118ZM195.5 22.618L206 22.618L206 1.61799L195.5 1.61799L195.5 12.118L195.5 22.618ZM10.5 12.118L10.5 22.618L10.6 22.618L10.6 12.118L10.6 1.61798L10.5 1.61798L10.5 12.118ZM10.6 12.118L11.7534 22.5544C21.6776 21.4577 28.7111 20.9758 33.1203 21.0009L33.18 10.5011L33.2397 0.00124176C27.5689 -0.0310034 19.549 0.565076 9.44664 1.68151L10.6 12.118ZM33.18 10.5011L33.1203 21.0009C37.6435 21.0266 42.1736 21.3849 46.7144 22.0785L48.3 11.6989L49.8856 1.31934C44.3464 0.473173 38.7965 0.0328394 33.2397 0.00124176L33.18 10.5011ZM48.3 11.6989L46.7144 22.0785C52.6595 22.9867 58.6238 23.1107 64.5836 22.4461L63.42 12.0108L62.2564 1.57546C58.1362 2.0349 54.0205 1.951 49.8856 1.31934L48.3 11.6989ZM63.42 12.0108L64.5836 22.4461C68.7843 21.9777 72.9786 22.0164 77.1849 22.5639L78.54 12.1517L79.8951 1.73949C74.0214 0.975039 68.1357 0.919854 62.2564 1.57546L63.42 12.0108ZM78.54 12.1517L77.1849 22.5639C82.4705 23.2518 87.7589 23.75 93.0495 24.0581L93.66 13.5759L94.2705 3.09365C89.4811 2.81472 84.6895 2.36346 79.8951 1.73949L78.54 12.1517ZM93.66 13.5759L93.0495 24.0581C99.2187 24.4174 105.356 23.7896 111.424 22.2109L108.78 12.0492L106.136 1.88753C102.124 2.93149 98.1813 3.32141 94.2705 3.09365L93.66 13.5759ZM108.78 12.0492L111.424 22.2109C114.835 21.3233 118.156 21.2796 121.534 22.0608L123.9 11.8309L126.266 1.60095C119.564 0.0506468 112.805 0.152493 106.136 1.88753L108.78 12.0492ZM123.9 11.8309L121.534 22.0608C127.721 23.4918 133.969 23.8595 140.225 23.1364L139.02 12.7058L137.815 2.27526C133.991 2.71708 130.159 2.50142 126.266 1.60095L123.9 11.8309ZM139.02 12.7058L140.225 23.1364C144.658 22.6241 149.084 22.5023 153.508 22.7692L154.14 12.2882L154.772 1.80726C149.116 1.46609 143.462 1.62268 137.815 2.27526L139.02 12.7058ZM154.14 12.2882L153.508 22.7692C158.454 23.0675 163.401 23.4323 168.348 23.8634L169.26 13.403L170.172 2.94268C165.039 2.49539 159.906 2.11691 154.772 1.80726L154.14 12.2882ZM169.26 13.403L168.348 23.8634C173.895 24.3467 179.444 24.4261 184.994 24.1012L184.38 13.6191L183.766 3.1371C179.236 3.40241 174.705 3.33777 170.172 2.94268L169.26 13.403ZM184.38 13.6191L184.994 24.1012C187.589 23.9492 189.803 23.7836 191.582 23.5984C193.1 23.4405 195.072 23.1994 196.712 22.7118L193.72 12.6472L190.728 2.58265C191.089 2.47519 191.202 2.47648 190.836 2.53412C190.539 2.58085 190.076 2.64176 189.408 2.71121C188.074 2.85004 186.211 2.99393 183.766 3.1371L184.38 13.6191ZM193.72 12.6472L196.875 22.6621L198.555 22.1328L195.4 12.118L192.245 2.10315L190.565 2.63238L193.72 12.6472ZM195.4 12.118L195.4 22.618L195.5 22.618L195.5 12.118L195.5 1.61799L195.4 1.61799L195.4 12.118Z" fill="#F6E937"/>
</g>
</svg>
