<?xml version="1.0" encoding="UTF-8"?>
<svg id="Livello_1" xmlns="http://www.w3.org/2000/svg" version="1.1" viewBox="0 0 102 79.44">
  <!-- Generator: Adobe Illustrator 30.0.0, SVG Export Plug-In . SVG Version: 2.1.1 Build 123)  -->
  <defs>
    <style>
      .st0 {
        fill: #f6e937;
      }
    </style>
  </defs>
  <path class="st0" d="M97.98,2.45c1.82-.29,3.47,1.12,3.47,2.96v68.02c0,1.73-1.46,3.11-3.2,3l-.58-.04c-30.22-1.98-70.64-5.69-85.08-9.65l-.29-.08c-.98-.27-1.76-1.02-2.07-1.99l-.11-.35C7.63,56.51,4.02,41.06.21,21.94l-.15-.77c-.33-1.67.79-3.28,2.47-3.55L97.98,2.45ZM85.92,11.92c0-1.25-1.13-2.19-2.36-1.97L16.92,22.15c-1.08.2-1.8,1.23-1.61,2.31l.19,1.12c2.65,15.32,5.16,27.7,6.89,33.97l.13.48c.18.65.68,1.17,1.33,1.38l.26.08c10.05,3.17,38.16,6.15,59.19,7.73l.47.03c1.16.09,2.15-.83,2.15-1.99V11.92Z"/>
</svg>